<svg width="18" height="18" viewBox="0 0 18 18" fill="none" xmlns="http://www.w3.org/2000/svg">
<path d="M8.9 17.0718C8.6 17.0718 8.3 16.9718 8.1 16.6718C2.7 10.5718 1.4 9.17178 1.1 8.77178C0.4 7.87178 0 6.67178 0 5.47178C0 2.47178 2.4 0.0717773 5.5 0.0717773C6.8 0.0717773 8 0.571777 9 1.37178C10 0.571777 11.3 0.0717773 12.5 0.0717773C15.5 0.0717773 18 2.47178 18 5.47178C18 6.77178 17.5 7.97178 16.7 8.87178L9.7 16.7718C9.5 16.9718 9.3 17.0718 8.9 17.0718ZM2.9 7.57178C3.2 7.97178 6.4 11.5718 9 14.4718L15.2 7.47178C15.7 6.97178 15.9 6.27178 15.9 5.47178C15.9 3.67178 14.4 2.17178 12.6 2.17178C11.6 2.17178 10.6 2.67178 9.9 3.47178C9.6 3.77178 9.3 3.87178 9 3.87178C8.7 3.87178 8.4 3.67178 8.2 3.47178C7.5 2.67178 6.5 2.17178 5.5 2.17178C3.7 2.17178 2.2 3.67178 2.2 5.47178C2.1 6.37178 2.5 7.07178 2.9 7.57178C2.8 7.57178 2.8 7.57178 2.9 7.57178Z" fill="black"/>
</svg>
