<svg width="75" height="71" viewBox="0 0 75 71" fill="none" xmlns="http://www.w3.org/2000/svg">
<path d="M70.5757 46.7718H4.6103C2.30452 46.7718 0.5 48.6718 0.5 51.0718V54.5718C0.5 56.9718 2.40477 58.8718 4.6103 58.8718H5.51257V59.9718C5.51257 65.4718 9.82337 70.0718 15.1367 70.0718H59.8488C65.1621 70.0718 69.4729 65.5718 69.4729 59.9718V58.8718H70.3752C72.681 58.8718 74.4855 56.9718 74.4855 54.5718V51.0718C74.686 48.7718 72.7812 46.7718 70.5757 46.7718ZM66.6659 59.9718C66.6659 63.8718 63.6583 66.9718 59.949 66.9718H15.1367C11.4274 66.9718 8.41985 63.7718 8.41985 59.9718V58.8718H66.6659V59.9718ZM71.7787 54.5718C71.7787 55.2718 71.1772 55.8718 70.5757 55.8718H4.51005C3.80829 55.8718 3.30704 55.2718 3.30704 54.5718V51.0718C3.30704 50.3718 3.90855 49.7718 4.51005 49.7718H70.4754C71.1772 49.7718 71.6784 50.3718 71.6784 51.0718C71.7787 51.0718 71.7787 54.5718 71.7787 54.5718Z" fill="#83B3D3"/>
<path d="M16.1392 38.4718L21.5528 42.5718L26.8661 38.4718L32.1794 42.5718L37.4927 38.4718L42.9063 42.5718L48.2196 38.4718L53.5329 42.5718L58.9465 38.4718L64.2598 42.5718L70.4754 37.8718L68.7711 35.3718L64.2598 38.7718L58.9465 34.6718L53.5329 38.7718L48.2196 34.6718L42.9063 38.7718L37.4927 34.6718L32.1794 38.7718L26.8661 34.6718L21.5528 38.7718L16.1392 34.6718L10.8259 38.7718L6.31458 35.3718L4.6103 37.8718L10.8259 42.5718L16.1392 38.4718Z" fill="#83B3D3"/>
<path d="M8.52011 31.5718H69.4729C69.4729 30.9718 69.5732 30.3718 69.5732 29.6718C69.5732 29.2718 69.5732 28.8718 69.5732 28.4718C68.8714 12.7718 54.8362 0.0717773 37.593 0.0717773C20.2495 0.0717773 6.21432 12.7718 5.51257 28.5718C5.51257 28.9718 5.51257 29.3718 5.51257 29.7718C5.51257 30.3718 5.50815 30.9718 5.6084 31.5718H8.52011ZM37.593 3.07178C53.2322 3.07178 66.0644 14.3718 66.6659 28.5718H8.52011C9.12161 14.4718 21.9538 3.07178 37.593 3.07178Z" fill="#83B3D3"/>
<path d="M37.593 17.3718C38.645 17.3718 39.4978 16.4763 39.4978 15.3718C39.4978 14.2672 38.645 13.3718 37.593 13.3718C36.541 13.3718 35.6882 14.2672 35.6882 15.3718C35.6882 16.4763 36.541 17.3718 37.593 17.3718Z" fill="#83B3D3"/>
<path d="M29.7734 12.2718C30.8254 12.2718 31.6782 11.3763 31.6782 10.2718C31.6782 9.16721 30.8254 8.27178 29.7734 8.27178C28.7214 8.27178 27.8686 9.16721 27.8686 10.2718C27.8686 11.3763 28.7214 12.2718 29.7734 12.2718Z" fill="#83B3D3"/>
<path d="M45.3123 12.2718C46.3643 12.2718 47.2171 11.3763 47.2171 10.2718C47.2171 9.16721 46.3643 8.27178 45.3123 8.27178C44.2604 8.27178 43.4076 9.16721 43.4076 10.2718C43.4076 11.3763 44.2604 12.2718 45.3123 12.2718Z" fill="#83B3D3"/>
</svg>
