<svg width="65" height="77" viewBox="0 0 65 77" fill="none" xmlns="http://www.w3.org/2000/svg">
<path d="M61.6 22.5343H61.5H36.8C50.6 15.6294 51.7 11.2263 51.2 8.82465C50 4.82185 45.5 1.81975 41.2 3.42087C35.6 5.52234 34.1 13.8282 32.6 19.8324C30.6 13.7281 28.8 6.02269 24.4 2.11996C23.1 1.01918 21.3 -0.181657 18.6 0.118554C14.6 0.518834 8.8 5.52234 11.1 11.1263C13.4 16.5301 20.8 19.9324 25.7 22.6343H3.7H3.4C1.8 22.6343 0.5 23.9352 0.5 25.5364V36.8443C0.5 38.4454 1.8 39.7463 3.4 39.7463H3.7V73.0697V75.4714V76.0718H61.5V75.5714V73.0697V39.6462H61.6C63.2 39.6462 64.5 38.3453 64.5 36.7442V25.4363C64.5 23.8352 63.2 22.5343 61.6 22.5343ZM42.9 5.92262C45 5.62241 47.9 7.22353 48.2 9.12487C48.6 11.9268 44.8 14.4286 43.1 15.5294C40.6 17.2305 38.2 18.1312 35.8 19.6322C36.7 15.9296 38.3 6.62311 42.9 5.92262ZM20 15.9296C17.8 14.4286 13.5 11.5265 13.6 8.12416C13.7 4.52164 19.3 1.51954 22.4 4.22143C26.3 7.62381 28.1 15.3292 29.5 20.8331C26.3 19.332 23.2 18.0311 20 15.9296ZM26 73.0697H6.6V39.6462H26V73.0697ZM26 36.5441H3.5V25.5364H26V36.5441ZM36.2 36.5441V39.5462V73.0697H29V39.6462V36.6441V25.6364H36.2V36.5441ZM58.5 73.0697H39.1V39.6462H58.5V73.0697ZM61.4 36.5441H39.1V25.5364H61.4V36.5441Z" fill="#83B3D3"/>
</svg>
