<svg width="76" height="73" viewBox="0 0 76 73" fill="none" xmlns="http://www.w3.org/2000/svg">
<path d="M30.1185 65.0718H46.1827V41.2718H30.1185V65.0718ZM33.0301 44.1718H43.1707V62.1718H33.0301V44.1718Z" fill="#83B3D3"/>
<path d="M73.3916 39.3718L75.5 37.2718L65.5602 27.3718V0.0717773H51.6044V13.6718L37.9498 0.0717773L0.5 37.2718L2.60843 39.3718L10.4398 31.5718V69.1718H6.42369V72.0718H70.5803V69.1718H65.4598V31.5718L73.3916 39.3718ZM62.5482 69.1718H13.3514V28.5718L37.9498 4.17178L62.5482 28.5718V69.1718ZM62.5482 24.4718L54.6165 16.5718V2.97178H62.5482V24.4718Z" fill="#83B3D3"/>
<path d="M30.3193 27.1718C30.3193 31.4718 33.8333 34.8718 38.0502 34.8718C42.3675 34.8718 45.8815 31.3718 45.8815 27.1718C45.8815 22.8718 42.3675 19.4718 38.0502 19.4718C33.8333 19.4718 30.3193 22.8718 30.3193 27.1718ZM38.1506 22.1718C40.8614 22.1718 43.1707 24.3718 43.1707 27.0718C43.1707 29.7718 40.9618 31.9718 38.1506 31.9718C35.4398 31.9718 33.1305 29.7718 33.1305 27.0718C33.1305 24.3718 35.3394 22.1718 38.1506 22.1718Z" fill="#83B3D3"/>
<path d="M20.4799 41.2718H17.4679V45.1718H20.4799V41.2718Z" fill="#83B3D3"/>
<path d="M26.4036 41.2718H23.3916V45.1718H26.4036V41.2718Z" fill="#83B3D3"/>
<path d="M20.4799 47.2718H17.4679V51.1718H20.4799V47.2718Z" fill="#83B3D3"/>
<path d="M26.4036 47.2718H23.3916V51.1718H26.4036V47.2718Z" fill="#83B3D3"/>
<path d="M52.508 41.2718H49.496V45.1718H52.508V41.2718Z" fill="#83B3D3"/>
<path d="M58.4317 41.2718H55.4197V45.1718H58.4317V41.2718Z" fill="#83B3D3"/>
<path d="M52.508 47.2718H49.496V51.1718H52.508V47.2718Z" fill="#83B3D3"/>
<path d="M58.4317 47.2718H55.4197V51.1718H58.4317V47.2718Z" fill="#83B3D3"/>
</svg>
