<svg width="20" height="21" viewBox="0 0 20 21" fill="none" xmlns="http://www.w3.org/2000/svg">
<path d="M19.5 18.0801L15.8 14.4005C16.8 13.1077 17.5 11.4171 17.5 9.52758C17.5 5.15189 13.9 1.57178 9.5 1.57178C5.1 1.57178 1.5 5.25134 1.5 9.62703C1.5 14.0027 5.1 17.5828 9.5 17.5828C11.3 17.5828 13 16.9861 14.4 15.8922L18.1 19.5718L19.5 18.0801ZM9.5 15.5939C6.2 15.5939 3.5 12.9088 3.5 9.62703C3.5 6.34526 6.2 3.66018 9.5 3.66018C12.8 3.66018 15.5 6.34526 15.5 9.62703C15.5 12.9088 12.8 15.5939 9.5 15.5939Z" fill="black"/>
</svg>
