<svg width="25" height="15" viewBox="0 0 25 15" fill="none" xmlns="http://www.w3.org/2000/svg">
<path fill-rule="evenodd" clip-rule="evenodd" d="M24.1164 1.448C24.2824 0.902 24.1164 0.5 23.3214 0.5H20.6964C20.0284 0.5 19.7204 0.847 19.5534 1.23C19.5534 1.23 18.2184 4.426 16.3274 6.502C15.7154 7.104 15.4374 7.295 15.1034 7.295C14.9364 7.295 14.6854 7.104 14.6854 6.557V1.448C14.6854 0.792 14.5014 0.5 13.9454 0.5H9.81738C9.40038 0.5 9.14938 0.804 9.14938 1.093C9.14938 1.714 10.0954 1.858 10.1924 3.606V7.404C10.1924 8.237 10.0394 8.388 9.70538 8.388C8.81538 8.388 6.65038 5.177 5.36538 1.503C5.11638 0.788 4.86438 0.5 4.19338 0.5H1.56638C0.816382 0.5 0.666382 0.847 0.666382 1.23C0.666382 1.912 1.55638 5.3 4.81138 9.781C6.98138 12.841 10.0364 14.5 12.8194 14.5C14.4884 14.5 14.6944 14.132 14.6944 13.497V11.184C14.6944 10.447 14.8524 10.3 15.3814 10.3C15.7714 10.3 16.4384 10.492 17.9964 11.967C19.7764 13.716 20.0694 14.5 21.0714 14.5H23.6964C24.4464 14.5 24.8224 14.132 24.6064 13.404C24.3684 12.68 23.5184 11.629 22.3914 10.382C21.7794 9.672 20.8614 8.907 20.5824 8.524C20.1934 8.033 20.3044 7.814 20.5824 7.377C20.5824 7.377 23.7824 2.951 24.1154 1.448H24.1164Z" fill="#83B3D3"/>
</svg>
