<svg xmlns="http://www.w3.org/2000/svg" width="459" height="327" fill="none"><g clip-path="url(#a)"><path fill="#766458" d="m152.74 52.61-2.8 4.54h-2.7l-.9 1.3h2.8l-6.11 9.64c-1.3 2.03-.4 3.89 2.1 3.89 1.8 0 3.7-1.2 5.6-2.87 0 3.52 5.3 4.17 8.61.46h.7c1.8 0 4.6-1.02 6.2-2.69-.2-.37-.7-.83-1.1-.92l-.2.18a6.48 6.48 0 0 1-4.6 2.04l2.8-4.45c1.8-2.87.1-5.65-2.7-5.65-2.3 0-4.1.83-5.9 3.61l-1.5 2.41-1.2 1.95-.2.18c-2.2 2.32-4.3 4.17-5.61 4.17-.7 0-1-.46-.3-1.48l6.5-10.38h2.5l.7-1.39h-2.5l2.8-4.54h-3Zm7.5 7.23c1 .1 1.4 1.2.4 2.78l-2.2 3.43h-.1c-1 0-1.8.74-1.8 1.67 0 .37.1.64.3.92v.1c-1.4 2.22-4.9 1.85-3.1-1.02l2.3-3.62 1.5-2.22c.9-1.48 2-2.04 2.7-2.04Zm22.02-7.23-2.8 4.54h-2.7l-.9 1.3h2.8l-6.2 9.64c-1.3 2.03-.4 3.89 2.1 3.89 1.2 0 2.5-.56 3.9-1.48l-.8 1.2h3l4.6-7.32c4.6-5.37 6.7-4.63 5.4-2.6l-3.9 6.21c-1.3 2.04-.4 3.9 2.1 3.9 1.8 0 3.8-1.3 5.71-2.97.1 1.76 1.7 2.97 4.1 2.97 3.4 0 6.81-2.41 9.31-5.1-.2-.37-.7-.83-1.1-.93l-.2.19c-2.2 2.31-5 4.17-7.1 4.17-1.9 0-3-1.02-1.6-3.34l.3-.46c1.9.74 5.6.37 7.9-3.15l.4-.65c1.6-2.6.1-4.45-2.4-4.45-2.4 0-4.4 1.2-5.7 3.15l-2.9 4.64-.2.18c-2.21 2.32-4.31 4.17-5.61 4.17-.7 0-1-.46-.4-1.48l4.4-6.95c1.3-2.13.1-3.62-1.6-3.62-1.3 0-2.7.65-4.2 2.14l4.8-7.7h-3l-8.41 13.35-.2.18c-2.2 2.32-4.3 4.17-5.6 4.17-.7 0-1-.46-.3-1.48l6.5-10.38h2.5l.9-1.3h-2.5l2.8-4.54-3.2-.09Zm21.32 7.6c1-.1 1.5.83.5 2.4l-.4.66c-1.4 2.22-3.4 2.22-4.5 1.85l1.9-3.15a3.62 3.62 0 0 1 2.5-1.76Zm44.33-5c-1.7 1.39-1.9 2.96-.8 4.26l.3.28a70.25 70.25 0 0 1-5.1 6.2l-.2.19a6.48 6.48 0 0 1-4.6 2.04l2.8-4.45c1.8-2.87.1-5.65-2.7-5.65-2.3 0-4.1.83-5.9 3.61l-1.5 2.41-1.21 1.95-.2.18c-2.5 2.6-4.6 4.36-7 5.28l6.8-10.56h-1.8c0-1.11-1.3-2.69-3.2-2.69-1.6 0-3.9 1.2-5.2 3.15l-4.21 6.68c-1.3 2.03-.4 3.89 2.1 3.89.8 0 1.9-.37 2.9-.93l-.8 1.3c-4.1 1.11-6.6 2.69-6.6 4.72 0 2.7 4.4 3.25 6.6-.18l2.3-3.61c2.4-.65 4.8-1.95 7.2-4.17 0 3.52 5.31 4.26 8.62.46h.7c1.8 0 4.6-1.02 6.2-2.69 1.4-1.57 2.6-2.96 5-5.93l.4.46c.4.47.5 1.02.2 1.58l-3.2 5.1c-1.3 2.03-.4 3.89 2.1 3.89 1.5 0 3.2-.93 4.8-2.23-.1 1.3.91 2.23 2.61 2.23.8 0 1.9-.37 2.9-.93l-.8 1.3c-4.1 1.11-6.6 2.69-6.6 4.72 0 2.7 4.4 3.25 6.6-.18l2.3-3.61a19.1 19.1 0 0 0 7.41-4.27c.1 1.76 1.7 2.97 4.1 2.97 2.5 0 4.9-1.3 7.01-2.97-.1 3.62 5.3 4.36 8.6.56h.7c.9 0 2.21-.28 3.41-.84-.8 1.95-.1 3.25 1.7 3.25 1.7 0 3.5-1.4 5-2.69-.3 1.48.7 2.69 2.6 2.69 2.51 0 5.41-2.41 7.92-5.1 1.7-1.85 3.2-3.7 4.3-5-1.2 2.87-.6 8.06-3.4 8.06-1 0-1.4-1.02-1.4-1.02l-1.9.93s.6 2.22 3.3 2.22c.3 0 .6 0 .8-.1h.1c3.1-.36 6.1-2.59 8.4-5-.2-.46-.7-.83-1.1-.92l-.2.18a21.3 21.3 0 0 1-3.6 2.97c1-2.6.8-6.67 2.6-10.2l-2.3-1.1c-1.2 1.57-4 5.18-6.7 8.06l-.2.18c-2.2 2.32-4.3 4.17-5.61 4.17-.7 0-1-.46-.3-1.48l6.4-10.38h-3l-5.4 8.62c-2.3 1.94-4.1 2.96-4.6 2.78-.8-.28 0-1.3.4-1.95l5.9-9.45h-3l-4.7 7.5-.2.19a6.49 6.49 0 0 1-4.61 2.04l2.8-4.45c1.8-2.87.1-5.65-2.7-5.65-2.3 0-4.1.83-5.9 3.61l-1.5 2.41-1.2 1.95-.2.18c-2.21 2.32-5.01 4.17-7.11 4.17-1.9 0-3-1.02-1.6-3.33l.3-.47c1.9.74 5.6.37 7.9-3.15l.4-.65c1.6-2.59.1-4.44-2.4-4.44-2.4 0-4.4 1.2-5.7 3.15l-2.9 4.63-.2.19c-2.51 2.59-4.61 4.35-7.01 5.28l6.8-10.57h-1.8c0-1.1-1.3-2.68-3.2-2.68-1.6 0-3.9 1.2-5.2 3.15l-2.9 4.54-.2.18c-2.21 2.32-4.31 4.17-5.61 4.17-.7 0-1-.46-.3-1.48l3-4.82c1-1.67.6-2.69-.4-3.7l-1.7-1.86c-.4-.46-.4-1.02.2-1.57l-1.9-1.76Zm-10.3 4.63c1 .1 1.5 1.2.4 2.78l-2.2 3.43h-.1c-1 0-1.8.74-1.8 1.67 0 .37.1.64.3.92v.1c-1.4 2.22-4.91 1.85-3.1-1.02l2.3-3.62 1.5-2.22c.9-1.48 1.9-2.04 2.7-2.04Zm50.24 0c1 .1 1.5 1.2.4 2.78l-2.2 3.43h-.1c-1 0-1.8.74-1.8 1.67 0 .37.1.64.3.92v.1c-1.4 2.22-4.9 1.85-3.1-1.02l2.3-3.62 1.5-2.22c.8-1.48 1.9-2.04 2.7-2.04Zm-11.71.37c1-.1 1.5.83.5 2.4l-.4.66c-1.5 2.22-3.4 2.22-4.5 1.85l1.9-3.15a3.62 3.62 0 0 1 2.5-1.76Zm-52.44.19c1 0 1.7.83.8 2.22l-2.3 3.7c-1.8 2.7-3.7 3.99-4.91 3.99-.7 0-1-.46-.3-1.48l4.2-6.77c.7-1.1 1.7-1.66 2.5-1.66Zm38.93 0c1 0 1.7.83.8 2.22l-2.3 3.7c-1.8 2.7-3.7 3.99-4.9 3.99-.7 0-1-.46-.3-1.48l4.2-6.77c.7-1.1 1.7-1.66 2.5-1.66Zm-45.34 13.8-1.4 2.23c-.6 1.01-1.7.83-1.7.09 0-.65.8-1.48 3.1-2.32Zm38.93 0-1.4 2.23c-.6 1.01-1.7.83-1.7.09.1-.65.8-1.48 3.1-2.32ZM101.4 63.45h28.93v1.76h-28.93v-1.76Zm227.3 0h28.92v1.76h-28.93v-1.76Z"/><path fill="#81B3D3" d="M323.28 35.28v7.14h-20.82V1h20.82v7.04h-13.21v10.01h10.5v7.13h-10.5v10.1h13.2ZM290.45 1h7.6v41.42h-7.6V22.03l-3 10.57h-7.4l-3.01-10.57v20.39h-7.6V1h7.6l6.8 20.02L290.46 1Zm-31.93 7.04h-5.5V35.2h5.5V8.04Zm3-7.04c2.5 0 4.71 1.95 4.71 4.36v32.7c0 2.41-2.2 4.36-4.7 4.36h-11.41c-2.6 0-4.7-2.04-4.7-4.36V5.36c0-2.41 2.1-4.36 4.7-4.36h11.4ZM233.5 27.13l7.71-1.67v12.6c0 2.41-2.2 4.36-4.7 4.36H225.1c-2.6 0-4.7-2.04-4.7-4.36V5.36c0-2.41 2.1-4.36 4.7-4.36h11.4c2.5 0 4.71 1.95 4.71 4.36v8.43l-7.7 1.67V8.04H228V35.2h5.5v-8.06Zm-16.81 8.15v7.14h-18.22V1h7.61v34.28h10.6Zm-21.42 0v7.14h-20.82V1h20.82v7.04h-13.2v10.01h10.5v7.13h-10.5v10.1h13.2ZM163.04 1h7.71l-1.3 41.42h-14.51l-2-17.14-2 17.14h-14.52l-1-41.42h7.6l.6 34.28h.8L149.24 1h7.61l4.9 34.28h.8l.5-34.28Z"/><path fill="#fff" d="M381.03 199.57 406.45 131h25.22l25.72 68.57h-20.22l-3.7-12.42h-28.62l-3.8 12.42h-20.02Zm35.73-48.28-7.51 22.7h20.12l-7.51-22.7-1.2-3.33c-.3-1.2-.6-2.32-.8-3.52a3 3 0 0 1-.3-1.2c-.1-.47-.2-.84-.2-1.21-.1.37-.2.74-.3 1.2-.1.37-.2.74-.2 1.2-.1.2-.1.29-.1.47 0 .1 0 .19-.1.28-.2 1.02-.5 2.13-.8 3.15-.5.93-.8 1.94-1.1 2.96Zm-117.8 48.28V131h19.51l27.93 35.21c.7 1.02 1.4 2.13 2 3.25.7 1.1 1.4 2.22 2 3.33l1.4 2.78c.5.93.9 1.85 1.4 2.69l-.3-2.23c-.1-.74-.2-1.48-.2-2.22-.2-1.48-.3-2.96-.3-4.45-.1-1.57-.1-3.06-.1-4.63V131.1h19.42v68.56H352.3l-28.12-35.4a15.9 15.9 0 0 1-2.2-3.05c-.7-1.2-1.4-2.5-2-3.8-.4-.93-.9-1.76-1.4-2.69-.4-.83-.7-1.76-1.2-2.6a80.25 80.25 0 0 1 1.2 13.62v33.83h-19.62Zm-88.07-50.87a35.49 35.49 0 0 1 14.9-14 43.41 43.41 0 0 1 19.92-4.81c.9 0 1.9 0 2.8.1 1 .08 2 .18 2.9.18 2.91.37 5.71 1.02 8.52 1.94 2.9.93 5.6 2.13 8.1 3.62 5.5 3.33 9.81 7.69 12.81 13.25 3 5.47 4.5 11.12 4.5 17.14 0 .74 0 1.48-.1 2.22 0 .75-.1 1.4-.2 2.13a31.06 31.06 0 0 1-2.4 8.8 35.35 35.35 0 0 1-15.2 16.22 44.4 44.4 0 0 1-21.73 5.75c-.5 0-1.1 0-1.6-.1h-1.5c-2.7-.18-5.3-.64-7.9-1.3-2.6-.64-5.11-1.57-7.41-2.68a36.5 36.5 0 0 1-15.31-13.44c-3.7-5.83-5.6-11.95-5.6-18.25 0-.93 0-1.85.1-2.78.1-.93.2-1.94.5-2.87.4-1.85.9-3.8 1.6-5.56.4-2.04 1.3-3.8 2.3-5.56Zm52.84 24.65.6-2.23c.2-.83.4-1.57.5-2.4.1-.47.1-1.03.1-1.49.1-.46.1-.92.1-1.39 0-.46 0-.83-.1-1.3v-1.3c-.4-3.05-1.4-6.02-3-8.89a17.2 17.2 0 0 0-6.7-6.67c-.8-.37-1.51-.65-2.31-.93-.8-.27-1.5-.55-2.3-.74a9.8 9.8 0 0 0-2.3-.27c-.8-.19-1.5-.19-2.3-.19-3.9 0-7.61 1.11-10.92 3.43a18.3 18.3 0 0 0-7 9.17l-.2.47v.46l-.6 2.04c-.2.64-.3 1.3-.5 2.03l-.2 1.49v2.22c0 .19 0 .46.1.74.2 3.8 1.5 7.41 3.7 10.84a16.6 16.6 0 0 0 9.5 6.68l1.41.46c.5.1 1 .18 1.5.18l1.4.19h1.4c4.1 0 7.81-1.11 11.01-3.34 3.3-2.4 5.7-5.46 7.1-9.26Zm-82.17 19.83a34 34 0 0 1-11.81 4.72c-4.2.84-8.6 1.4-12.91 1.58-1.2.09-2.5.09-3.7.09h-23.82V131h25.12a76.86 76.86 0 0 1 15.91 1.67c4.1.83 7.9 2.5 11.31 4.73 4.3 2.78 7.7 6.48 10.1 11.11 2.41 4.64 3.81 9.36 4.11 14.18.1.47.1.84.1 1.3v2.69c-.2 5.1-1.5 10-3.9 14.73-2.4 4.72-6 8.7-10.51 11.77Zm-32.43-9c.2 0 .5 0 .7.1h.8c.3 0 .6 0 .8.1h3.1c.9-.1 1.7-.2 2.41-.2 2-.18 4-.46 5.9-.92 1.9-.46 3.7-1.3 5.2-2.22a14.9 14.9 0 0 0 5.51-6.67c1.2-2.88 1.9-5.84 1.9-8.9v-.83c0-.28 0-.56-.1-.84-.2-2.68-.9-5.37-2.1-7.87-1.2-2.6-2.9-4.64-5.1-6.12-1.6-1.2-3.5-2.04-5.5-2.5-2-.46-4-.65-6.01-.74h-7.5v37.62Zm-79.96 15.39V131h45.43v14.92H88.98v12.05H113v14.64H88.98v11.58h25.52v15.38H69.17ZM9.72 177.52c.1.09.1.18.1.18.1 0 .2 0 .2.1 2.1 2.13 4.5 4.16 7.1 6.02 2.6 1.76 5.7 2.78 9.11 2.87.1 0 .2 0 .2.1h.3c.1 0 .2 0 .2.09h1.3c.4-.1.7-.19 1-.19 1.2-.19 2.4-.65 3.5-1.3a6.58 6.58 0 0 0 2.7-2.4l.2-.47.2-.46c.2-.47.3-.93.3-1.4.1-.46.1-.83.1-1.2 0-1.94-.9-3.52-2.8-4.81a21.5 21.5 0 0 0-5.8-3.16c-.8-.27-1.6-.46-2.4-.64-.7-.19-1.5-.38-2.2-.56h-.2c-.1-.1-.2-.1-.2-.1-3.8-.83-7.4-2.22-10.71-4.07a15.63 15.63 0 0 1-6.9-8.25c-.2-.74-.5-1.48-.7-2.22-.2-.84-.3-1.67-.3-2.5v-3.16c.1-.55.2-1.1.3-1.75a16 16 0 0 1 1.2-4.27c.5-1.39 1.2-2.68 2.1-3.89 2.5-3.8 5.7-6.48 9.5-8.15 3.9-1.67 8.11-2.5 12.31-2.5 1 0 2 .09 3 .18l3.3.28a48.17 48.17 0 0 1 15.92 5.65l-6.4 13.25a56.71 56.71 0 0 0-6.6-3.8 16.97 16.97 0 0 0-7.52-1.57h-.9a9.3 9.3 0 0 0-5 2.22c-1.5 1.2-2.3 2.5-2.3 3.99v.65c.1.18.2.46.3.64.2.47.4.93.8 1.4.4.46.8.83 1.3 1.2.9.65 2.1 1.3 3.7 1.85 1.6.47 3.3 1.02 5.1 1.48l4.31 1.12c1.4.27 2.6.55 3.5.83 4.3 1.39 7.61 3.8 9.81 7.23a19.8 19.8 0 0 1 3.4 10.56v.56c0 .46 0 .83-.1 1.3v1.2c-.5 3.7-1.8 7.32-3.9 10.65a21.42 21.42 0 0 1-8.5 7.79c-1.3.55-2.7 1.1-4.1 1.48-1.41.37-2.81.65-4.21.93-1.1.18-2.3.37-3.5.46-1.1.19-2.2.19-3.4.19h-1.4c-4.61-.19-9.22-1.12-13.72-2.78A42.32 42.32 0 0 1 .3 191.23l9.4-13.71Zm341.88 136.3a2.54 2.54 0 0 1 .7-1.58c.2-.18.5-.37.8-.55.3-.1.7-.19 1.1-.19.5 0 .9.1 1.3.28.4.19.8.37 1.1.65.2.28.4.56.6.93.1.37.2.74.2 1.2 0 .83-.2 1.48-.5 2.22-.3.65-.7 1.3-1.3 1.77a4.86 4.86 0 0 1-1.7 1.1c-.3.1-.5.29-.7.38-.1.09-.2.09-.4.18l-1.4-1.85c.2-.1.5-.19.8-.37.3-.1.6-.28.9-.47.3-.18.5-.46.7-.74.2-.27.3-.55.3-.92-.6 0-1.2-.19-1.7-.56-.6-.28-.8-.74-.8-1.48Zm7.8 0a2.54 2.54 0 0 1 .7-1.58c.2-.18.5-.37.8-.55.31-.1.71-.19 1.11-.19a4.16 4.16 0 0 1 2.4.93c.2.28.4.56.6.93.1.37.2.74.2 1.2 0 .74-.1 1.48-.5 2.22-.3.65-.7 1.3-1.3 1.77-.3.27-.5.46-.8.64-.3.19-.6.37-.9.47-.3.09-.5.27-.7.37-.1.09-.2.09-.4.18l-1.3-1.85c.2-.1.5-.19.8-.37.3-.1.6-.28.9-.47.3-.18.5-.46.7-.74.2-.27.3-.55.3-.92-.6 0-1.2-.19-1.7-.56-.7-.28-.9-.74-.9-1.48ZM94.6 259.42c0 .29-.1.56-.2.84a2 2 0 0 1-.5.74c-.5.47-1.2.74-1.9.74-.4 0-.9-.09-1.3-.27-.4-.19-.8-.37-1.1-.65-.3-.28-.5-.65-.6-.93-.1-.37-.2-.74-.2-1.2 0-.84.2-1.49.5-2.23.3-.65.7-1.3 1.3-1.76a4.9 4.9 0 0 1 1.7-1.11c.3-.1.5-.28.7-.37.2-.1.3-.1.4-.19l1.3 1.86c-.3.09-.6.18-.8.37-.3.1-.6.28-.9.46-.3.19-.5.47-.7.74-.2.28-.3.56-.3.93.7 0 1.2.19 1.7.56.7.37.9.83.9 1.48Zm-7.8 0c0 .56-.2 1.12-.7 1.58-.21.19-.51.37-.81.56a3.3 3.3 0 0 1-2.4-.1c-.4-.18-.8-.36-1.1-.64-.3-.28-.5-.65-.6-.93-.1-.37-.2-.74-.2-1.2 0-.84.2-1.49.5-2.23.3-.65.7-1.3 1.3-1.76.2-.18.5-.46.8-.65.3-.18.6-.37.9-.46.3-.1.5-.28.7-.37.2-.1.3-.1.4-.19l1.3 1.86c-.2.09-.5.18-.8.37-.3.1-.6.28-.9.46-.3.19-.5.47-.7.74-.2.28-.3.56-.3.93.7 0 1.2.19 1.7.56.6.37.9.83.9 1.48Zm245.5 52.73h3.8l11.8-19.09h-3.8l-11.8 19.1Zm-.1 1.4c-1.2 0-2.2.92-2.2 2.03 0 1.11.9 2.04 2.2 2.04 1.2 0 2.2-.84 2.2-2.04 0-1.2-1-2.04-2.2-2.04Zm-26.43-5.1 1.1-1.77c4.4-5.65 7.31-4.07 6-1.94l-1.8 2.87c-1.1 1.76-4.5 3.06-5.3.83Zm25.12 2.68c-.2-.55-.9-1.11-1.4-1.2l-.3.27a24.32 24.32 0 0 1-4.5 3.8c1.2-3.33.9-8.43 3.3-12.97l-2.8-1.39c-1.6 1.95-5 6.58-8.4 10.29l-.3.27c-2.71 2.97-5.41 5.29-7.01 5.29-.8 0-1.6-.74-1.6-2.32v-1.48c2.7.28 5.5-1.3 7.2-4.17l1-1.58c3.5-5.56-2.2-7.41-6.1-4.17l5.4-8.61h-3.8l-10.81 17.32c-.2-.18-.4-.28-.7-.46l-.3.28c-2.7 2.96-6.2 5.28-8.9 5.28-2.31 0-3.71-1.39-2.01-4.17l3.9-6.3c2.2-3.43 6-2.87 3.8.74l-.5.83h3.1l.5-.83c2.01-3.24.1-5.65-3-5.65s-5.5 1.48-7.1 4.07l-3.7 5.94c-.1 0-.2-.1-.2-.1l-.3.28c-2.7 2.97-5.4 5.28-7 5.28-.81 0-1.31-.55-.41-1.94l8.1-13.07h-3.8l-6.7 10.84c-2.9 2.41-5.1 3.8-5.8 3.43-.9-.37 0-1.67.5-2.4l7.4-11.96h-3.8l-7.3 11.77c-.81.65-2.41 1.3-3.21 1.76 1.2-3.34.9-8.44 3.3-12.98l-2.8-1.38c-1.6 1.94-10.31 12.69-13.71 16.4.3.46.9.83 1.4 1.2a812.1 812.1 0 0 0 10.7-12.5c-1.5 3.6-.7 10.18-4.3 10.18-1.3 0-1.8-1.3-1.8-1.3l-2.4 1.12s.7 2.78 4.1 2.78c.4 0 .7 0 1.1-.1h.1c1.9-.27 4.6-1.01 6.41-2.22 0 1.4.9 2.32 2.5 2.32 2.1 0 4.4-1.76 6.2-3.34-.4 1.86.8 3.34 3.21 3.34 2.3 0 5-1.76 7.4-4.08 0 2.32 2 4.08 5.11 4.08 3.1 0 6.1-1.58 8.7-3.7l-2.1 3.42h3.8l4.31-6.95v2.78c0 2.97.6 4.54 3.7 4.54s6.71-3.06 9.81-6.48c2.1-2.32 4-4.73 5.4-6.4-1.5 3.62-.7 10.2-4.3 10.2-1.3 0-1.8-1.3-1.8-1.3l-2.4 1.1s.7 2.79 4.1 2.79c.4 0 .7 0 1.1-.1h.1c4-.46 7.81-3.33 10.61-6.39Zm-114.7-1.02h-.2c-1.2 0-2.2.93-2.2 2.13 0 .47.1.84.4 1.2v.1c-1.8 2.78-6.1 2.32-3.9-1.39l2.9-4.63 1.8-2.87c2.71-4.17 6.31-2.5 4.01 1.1l-2.8 4.36Zm-25.41 13.16c-.8 1.3-2.1 1.11-2.1.19 0-.93.9-1.95 3.8-2.97l-1.7 2.78Zm-28.83-12.79c-2.3 3.34-4.5 4.91-6.1 4.91-.8 0-1.3-.55-.4-1.94l5.3-8.53c2-3.24 6.1-2.4 4.2.75l-3 4.81Zm-12-13.62c1.1-1.76 2.4-2.6 3.4-2.6 1.4 0 2.1.84 2.1 2.14 0 3.24-4.4 10-10.21 9.17h-.8l5.5-8.7Zm92.87 13.07-.3.27c-2.7 2.97-5.4 5.29-7 5.29-.8 0-1.3-.56-.4-1.95l5.4-8.9c1.6-2.68.1-4.53-2-4.53-1.6 0-3.3.83-5.2 2.59l1.4-2.32h-3.8l-6.11 9.73c-.2-.09-.3-.18-.5-.28l-.3.28a8.05 8.05 0 0 1-5.7 2.6l3.6-5.65c2.3-3.71.2-7.14-3.4-7.14-2.91 0-5.21 1.11-7.31 4.54l-1.9 2.97-1.6 2.59c-.1-.1-.2-.1-.3-.19l-.3.28c-3.11 3.34-5.81 5.47-8.82 6.67l10.41-16.4h-3.8l-6.7 10.75c-2.9 2.5-5.21 3.9-5.91 3.62-.9-.38 0-1.67.5-2.41l7.4-11.96h-3.8l-6 9.64c-.1-.1-.2-.1-.3-.19l-.3.28c-2.7 2.97-5.4 5.28-7 5.28-.81 0-1.31-.55-.4-1.94l5.4-8.9c1.6-2.68.1-4.54-2-4.54-1.6 0-3.3.84-5.21 2.6l1.4-2.32h-3.8l-6 9.64c-.1-.1-.2-.1-.4-.19l-.3.28c-2.71 2.97-5.41 5.28-7.01 5.28-.8 0-1.3-.55-.4-1.94l6.1-9.92h-2.1c.1-1.48-1.5-3.52-4-3.52-2 0-4.9 1.48-6.51 4.08l-3.9 6.2c-.3-.18-.6-.37-.8-.46l-.3.28c-2.7 2.97-4.8 5.28-8.61 5.28-2.6 0-4.1-2.4-1.9-5.93l1.1-1.76c.7.1 1.4.19 2.1.19 4 0 8.6-1.95 11.61-6.77a8.84 8.84 0 0 0 1.5-4.72c0-3.15-2.2-5.2-5-5.2-2.1 0-4.5 1.4-6.2 4.08l-5.91 9.36c-2.2-1.1-3.4-3.06-3.4-5 0-1.58.8-3.24 2.4-4.45l-1.2-2.04c-2.7 1.76-3.9 4.17-3.9 6.49 0 2.78 1.7 5.47 4.8 6.95l-1.1 1.85c-2.7 4.26-1.1 8.99 4.2 8.99 4.2 0 6.1-1.76 8.7-4.08-.8 2.23.4 4.08 3 4.08 1.5 0 3.41-.93 5.21-2.32.2 1.4 1.3 2.32 3.3 2.32 1.8 0 3.8-1.02 5.71-2.6l-1.4 2.23h3.8l5.8-9.36c5.81-6.67 8.41-5.84 6.71-3.24l-4.9 7.87c-1.6 2.6-.5 5 2.6 5 2 0 4.3-1.29 6.4-3.14-.5 1.94.5 3.15 2.4 3.15 1.8 0 3.91-1.4 5.61-2.78l-2.1 3.33c-5.1 1.4-8.3 3.34-8.3 6.03 0 3.33 5.6 4.07 8.3-.28l2.9-4.63c3.2-.93 6.3-2.78 9.51-5.75-.5 4.91 6.5 6.02 10.71 1.02h.8c1.4 0 3.2-.46 4.9-1.39l-2.5 4.08h3.8l5.81-9.36c5.8-6.67 8.4-5.84 6.7-3.25l-4.9 7.88c-1.6 2.6-.5 5 2.6 5s6.71-3.05 9.81-6.48c-.1 0-.7-.56-1.2-.74Zm118.7-32.99c-2.3 3.43-4.6 5.1-6.2 5.1-.8 0-1.3-.56-.4-1.95l5.3-8.52c2-3.25 6.1-2.41 4.2.74l-2.9 4.63Zm-36.23.19c-2.3 3.33-4.5 4.9-6.1 4.9-.8 0-1.3-.55-.4-1.94l5.3-8.52c2-3.25 6.1-2.41 4.2.74l-3 4.82Zm-39.93 12.78c-.8 1.3-2.1 1.11-2.1.19 0-.93.9-1.95 3.8-2.97l-1.7 2.78Zm8-26.4c1.1-1.77 2.4-2.6 3.4-2.6 6.01 0 1.5 13.34-8.1 11.3h-.8l5.5-8.7Zm77.77 13.06-.3.28c-2.7 2.96-5.4 5.28-7 5.28-.8 0-1.3-.56-.4-1.95l12.8-20.47h-3.8l-5.6 8.9a4.2 4.2 0 0 0-3.5-1.86c-2.01 0-4.91 1.48-6.51 4.07l-3.7 5.94c-.1 0-.2-.1-.2-.1l-.3.28c-2.71 2.97-5.01 5.28-6.71 5.28-.8 0-1.3-.55-.4-1.94l5.5-8.9c1.6-2.69.1-4.54-2-4.54-1.6 0-3.3.84-5.2 2.6l1.4-2.32h-3.8l-6.01 9.63c-.1-.09-.2-.09-.4-.18l-.3.28c-2.7 2.96-5.4 5.28-7 5.28-.8 0-1.3-.56-.4-1.95l6.1-9.91h-2.1c.1-1.48-1.5-3.52-4-3.52-2.01 0-4.91 1.48-6.51 4.07l-3.7 5.84-.2.19c-2.7 2.96-5.81 5.28-7.41 5.28-.8 0-1.3-.56-.4-1.95l3.8-6.11c1.3-2.13.7-3.34-.5-4.73l-2.1-2.31c-.5-.65-.5-1.4.2-2.04l-2-1.95c-2.1 1.76-2.3 3.8-1 5.38l.3.37c-1.7 2.22-3.9 5.19-6.41 7.87l.3.28c-3.1 3.34-5.8 5.47-8.7 6.67l4.8-7.6h-3.8l-.4.65c-2 3.25-4.31 5.56-7.21 5.56-2.6 0-3-2.4-.8-5.93l1.1-1.76c.7.1 1.4.19 2.1.19 13.41 0 19.92-16.68 8.1-16.68-2.1 0-4.5 1.39-6.2 4.07l-5.9 9.36c-2.2-1.1-3.4-3.05-3.4-5 0-1.58.8-3.24 2.4-4.45l-1.2-2.04c-2.7 1.76-3.9 4.17-3.9 6.49 0 2.78 1.7 5.47 4.8 6.95l-1.1 1.85c-2.7 4.27-2.2 9 3.2 9 1.6 0 2.9-.47 4.1-1.12l-1 1.57c-5.1 1.49-8.3 3.34-8.3 6.03 0 3.33 5.6 4.07 8.3-.28l2.9-4.63c3.9-1.12 7.8-3.62 11.91-8.06-.1-.1-.1-.2-.2-.38 1.7-1.85 3.1-3.61 6-7.13l.5.56c.5.55.7 1.3.2 1.94l-4 6.4c-1.6 2.59-.5 5 2.6 5 1.9 0 4.31-1.11 6.41-2.78 0 1.57 1.1 2.78 3.3 2.78 1.5 0 3.4-.93 5.2-2.32.2 1.4 1.3 2.32 3.31 2.32 1.8 0 3.8-1.02 5.7-2.6l-1.4 2.23h3.8l5.81-9.36c5.8-6.67 8.41-5.84 6.7-3.24l-4.9 7.87c-1.6 2.6-.5 5 2.6 5 2 0 3.8-1.3 6.01-3.05-.2 1.76 1 3.06 3.3 3.06 1.5 0 3.4-.93 5.2-2.32.2 1.39 1.3 2.31 3.31 2.31 3.1 0 6.7-3.05 9.8-6.48-.5-.28-1.1-.83-1.6-1.02Zm-112.4-4.91c2.2-3.43 6-2.87 3.8.74l-.5.83c-1.8 2.88-4.3 2.78-5.7 2.32l2.4-3.9Zm-3 12.6c4.3 0 8.5-3.06 11.71-6.49a3.4 3.4 0 0 0-1.4-1.2l-.3.28c-2.7 2.96-6.2 5.28-8.9 5.28-2.3 0-3.71-1.39-2-4.17l.4-.65c2.4.93 7 .46 9.8-4.08l.5-.83c2-3.24.1-5.65-3-5.65-3 0-5.5 1.48-7.1 4.07l-3.71 5.84s-.1 0-.1-.09l-.3.28c-2.7 2.96-5.4 5.28-7 5.28-.8 0-1.3-.56-.4-1.95l5.4-8.9c1.6-2.68.1-4.53-2-4.53-1.6 0-3.4.83-5.31 2.69l6-9.73h-3.8l-10.7 17.14c-.1-.1-.3-.19-.4-.28l-.3.28c-2.7 2.96-5.41 5.28-7.01 5.28-.8 0-1.3-.56-.4-1.95l8.1-13.06h3.1l1.1-1.67h-3.1l3.6-5.74h-3.8l-3.6 5.74h-3.4l-1.1 1.67h3.4l-7.6 12.23c-1.6 2.6-.5 5 2.6 5 1.9 0 3.9-1.1 5.9-2.78l-1.5 2.41h3.8l5.7-9.26c5.81-6.77 8.41-5.93 6.81-3.34l-4.9 7.88c-1.6 2.6-.5 5 2.6 5 2.3 0 4.8-1.67 7.3-3.9.2 2.23 2.2 3.9 5.31 3.9Zm-127.6-12.6c2.2-3.43 6-2.87 3.8.74l-.5.83c-1.8 2.88-4.3 2.78-5.7 2.32l2.4-3.9Zm23.12 8.52 5.3-8.52c2-3.24 6.1-2.41 4.2.74l-2.9 4.82c-2.3 3.33-4.5 4.91-6.1 4.91-.9-.1-1.4-.56-.5-1.95Zm54.04-8.52c2.2-3.43 6-2.87 3.8.74l-.5.83c-1.8 2.88-4.2 2.78-5.7 2.32l2.4-3.9Zm-57.85 8.8c-.6 2.04.6 3.8 3.1 3.8 1.5 0 3.4-.93 5.2-2.32.2 1.4 1.31 2.32 3.31 2.32s4.2-1.3 6.4-3.06c-.4 1.86.5 3.06 2.4 3.06 2.11 0 4.41-1.76 6.21-3.33-.4 1.85.8 3.33 3.2 3.33 3.1 0 6.71-3.06 9.81-6.49 0 0-.1-.09-.1-.18 2.1-2.22 3.9-4.63 5.2-6.3-1.5 3.61-.7 10.2-4.3 10.2-1.3 0-1.8-1.3-1.8-1.3l-2.4 1.1s.7 2.88 4.1 2.88c.4 0 .7 0 1.1-.1h.1c2.8-.37 5.51-1.94 7.91-3.89.1 2.32 2 3.99 5.1 3.99 4.31 0 8.51-3.06 11.72-6.49a3.4 3.4 0 0 0-1.4-1.2l-.3.27c-2.7 2.97-6.21 5.29-8.91 5.29-2.3 0-3.7-1.4-2-4.17l.4-.65c2.4.92 7 .46 9.8-4.08l.5-.83c2-3.25.1-5.66-3-5.66s-5.5 1.49-7.1 4.08l-3.7 5.84h-.1l-.3.28a24.34 24.34 0 0 1-4.51 3.8c1.2-3.34.9-8.44 3.3-12.97l-2.8-1.4c-1.6 1.95-5 6.58-8.4 10.29l.1.1-.1.18c-2.7 2.96-5.41 5.28-7.01 5.28-.8 0-1.3-.56-.4-1.95l8.1-13.06h-3.8l-6.7 10.84c-2.9 2.4-5.1 3.8-5.81 3.43-.9-.37 0-1.67.5-2.41l7.4-11.95h-3.8l-6 9.63c-.1-.09-.2-.09-.3-.18l-.3.27c-2.7 2.97-5.4 5.29-7 5.29-.8 0-1.3-.56-.4-1.95l6.1-9.91h-2.1c.1-1.49-1.5-3.53-4-3.53-2.01 0-4.91 1.49-6.51 4.08l-3.8 6.12c-.2-.1-.4-.28-.6-.37l-.3.27c-2.71 2.97-5.91 5.29-8.51 5.29-2.3 0-3.7-1.4-2-4.17l3.9-6.3c2.2-3.43 6-2.88 3.8.74l-.5.83h3.1l.5-.83c2-3.25.1-5.66-3-5.66s-5.1 1.49-6.7 4.08l-3.8 5.93c-.1-.09-.2-.09-.3-.18l-.3.27c-2.71 2.97-5.91 5.29-8.62 5.29-2.3 0-3.7-1.4-2-4.17l.4-.65c2.4.92 7 .46 9.81-4.08l.5-.83c2-3.25.1-5.66-3-5.66s-5.5 1.49-7.1 4.08l-4.01 6.3c-2.4 3.71-.3 7.14 4.1 7.14 3.3 0 6-1.86 8.81-4.26-.1 2.4 1.9 4.26 5.1 4.26 3.4.1 6.1-1.58 8.81-3.7ZM110.5 267.5l3.1-4.82c2.8-4.45 6.3-1.85 4.4 1.48-1.5 2.5-3.6 3.34-7.5 3.34Zm-4.1 16.03c-2.3 0-4-.46-5.4-1.2.7-.75 1.3-1.58 1.9-2.5l6.4-10.2 1 .1c8.8 1.66 5.3 13.8-3.9 13.8Zm9.4-14.36c7.61-2.41 8.21-11.22.7-11.22-2.1 0-4.5 1.4-6.2 4.08l-10.2 16.31c-.4.74-.9 1.39-1.5 1.95-2.61-3.34-1.91-8.34 1.8-10.47l-1.5-1.76c-7.92 4.63-5.61 18.16 7.6 18.16 11.3 0 16.51-12.6 9.3-17.05Z"/></g><defs><clipPath id="a"><path fill="#fff" d="M.3.63H458.7v326.16H.3z"/></clipPath></defs></svg>